<?xml version="1.0" encoding="UTF-8" standalone="no"?>
<!DOCTYPE svg PUBLIC "-//W3C//DTD SVG 1.1//EN"
 "http://www.w3.org/Graphics/SVG/1.1/DTD/svg11.dtd">
<!-- Generated by graphviz version 2.40.1 (20161225.0304)
 -->
<!-- Title: dependencies Pages: 1 -->
<svg width="672pt" height="284pt"
 viewBox="0.00 0.00 672.00 284.00" xmlns="http://www.w3.org/2000/svg" xmlns:xlink="http://www.w3.org/1999/xlink">
<g id="graph0" class="graph" transform="scale(1 1) rotate(0) translate(4 280)">
<title>dependencies</title>
<polygon fill="#ffffff" stroke="transparent" points="-4,4 -4,-280 668,-280 668,4 -4,4"/>
<text text-anchor="start" x="311.0091" y="-42.4" font-family="sans-serif" font-weight="bold" font-size="14.00" fill="#000000">Legend</text>
<polygon fill="#ffffb3" stroke="transparent" points="98,-10 98,-30 118,-30 118,-10 98,-10"/>
<text text-anchor="start" x="121.629" y="-15.4" font-family="sans-serif" font-size="14.00" fill="#000000"> &#160;Declarations</text>
<polygon fill="#8dd3c7" stroke="transparent" points="211,-10 211,-30 231,-30 231,-10 211,-10"/>
<text text-anchor="start" x="234.7251" y="-15.4" font-family="sans-serif" font-size="14.00" fill="#000000"> &#160;Module</text>
<polygon fill="#80b1d3" stroke="transparent" points="297,-10 297,-30 317,-30 317,-10 297,-10"/>
<text text-anchor="start" x="320.7812" y="-15.4" font-family="sans-serif" font-size="14.00" fill="#000000"> &#160;Bootstrap</text>
<polygon fill="#fdb462" stroke="transparent" points="394,-10 394,-30 414,-30 414,-10 394,-10"/>
<text text-anchor="start" x="417.6732" y="-15.4" font-family="sans-serif" font-size="14.00" fill="#000000"> &#160;Providers</text>
<polygon fill="#fb8072" stroke="transparent" points="490,-10 490,-30 510,-30 510,-10 490,-10"/>
<text text-anchor="start" x="513.7258" y="-15.4" font-family="sans-serif" font-size="14.00" fill="#000000"> &#160;Exports</text>
<g id="clust1" class="cluster">
<title>cluster_UiModule</title>
<polygon fill="none" stroke="#000000" stroke-dasharray="1,5" points="8,-70 8,-268 656,-268 656,-70 8,-70"/>
</g>
<g id="clust2" class="cluster">
<title>cluster_UiModule_declarations</title>
<polygon fill="none" stroke="#000000" points="138,-78 138,-130 648,-130 648,-78 138,-78"/>
</g>
<g id="clust7" class="cluster">
<title>cluster_UiModule_imports</title>
<polygon fill="none" stroke="#000000" points="16,-78 16,-130 130,-130 130,-78 16,-78"/>
</g>
<g id="clust8" class="cluster">
<title>cluster_UiModule_exports</title>
<polygon fill="none" stroke="#000000" points="255,-208 255,-260 369,-260 369,-208 255,-208"/>
</g>
<!-- FooterComponent -->
<g id="node1" class="node">
<title>FooterComponent</title>
<polygon fill="#ffffb3" stroke="#000000" points="639.8809,-122 522.1191,-122 522.1191,-86 639.8809,-86 639.8809,-122"/>
<text text-anchor="middle" x="581" y="-99.8" font-family="Times,serif" font-size="14.00" fill="#000000">FooterComponent</text>
</g>
<!-- UiModule -->
<g id="node5" class="node">
<title>UiModule</title>
<polygon fill="#8dd3c7" stroke="#000000" points="348.5484,-187 345.5484,-191 324.5484,-191 321.5484,-187 275.4516,-187 275.4516,-151 348.5484,-151 348.5484,-187"/>
<text text-anchor="middle" x="312" y="-164.8" font-family="Times,serif" font-size="14.00" fill="#000000">UiModule</text>
</g>
<!-- FooterComponent&#45;&gt;UiModule -->
<g id="edge1" class="edge">
<title>FooterComponent&#45;&gt;UiModule</title>
<path fill="none" stroke="#000000" d="M581,-122.2843C581,-143.3211 581,-175 581,-175 581,-175 358.5585,-175 358.5585,-175"/>
<polygon fill="#000000" stroke="#000000" points="358.5585,-171.5001 348.5585,-175 358.5585,-178.5001 358.5585,-171.5001"/>
</g>
<!-- HeaderComponent -->
<g id="node2" class="node">
<title>HeaderComponent</title>
<polygon fill="#ffffb3" stroke="#000000" points="503.7437,-122 382.2563,-122 382.2563,-86 503.7437,-86 503.7437,-122"/>
<text text-anchor="middle" x="443" y="-99.8" font-family="Times,serif" font-size="14.00" fill="#000000">HeaderComponent</text>
</g>
<!-- HeaderComponent&#45;&gt;UiModule -->
<g id="edge2" class="edge">
<title>HeaderComponent&#45;&gt;UiModule</title>
<path fill="none" stroke="#000000" d="M443,-122.0225C443,-139.3734 443,-163 443,-163 443,-163 358.8394,-163 358.8394,-163"/>
<polygon fill="#000000" stroke="#000000" points="358.8395,-159.5001 348.8394,-163 358.8394,-166.5001 358.8395,-159.5001"/>
</g>
<!-- NavComponent -->
<g id="node3" class="node">
<title>NavComponent</title>
<polygon fill="#ffffb3" stroke="#000000" points="364.1542,-122 259.8458,-122 259.8458,-86 364.1542,-86 364.1542,-122"/>
<text text-anchor="middle" x="312" y="-99.8" font-family="Times,serif" font-size="14.00" fill="#000000">NavComponent</text>
</g>
<!-- NavComponent&#45;&gt;UiModule -->
<g id="edge3" class="edge">
<title>NavComponent&#45;&gt;UiModule</title>
<path fill="none" stroke="#000000" d="M312,-122.1061C312,-122.1061 312,-140.991 312,-140.991"/>
<polygon fill="#000000" stroke="#000000" points="308.5001,-140.9909 312,-150.991 315.5001,-140.991 308.5001,-140.9909"/>
</g>
<!-- UiComponent -->
<g id="node4" class="node">
<title>UiComponent</title>
<polygon fill="#ffffb3" stroke="#000000" points="241.8302,-122 146.1698,-122 146.1698,-86 241.8302,-86 241.8302,-122"/>
<text text-anchor="middle" x="194" y="-99.8" font-family="Times,serif" font-size="14.00" fill="#000000">UiComponent</text>
</g>
<!-- UiComponent&#45;&gt;UiModule -->
<g id="edge4" class="edge">
<title>UiComponent&#45;&gt;UiModule</title>
<path fill="none" stroke="#000000" d="M194,-122.0225C194,-139.3734 194,-163 194,-163 194,-163 265.3109,-163 265.3109,-163"/>
<polygon fill="#000000" stroke="#000000" points="265.3109,-166.5001 275.3109,-163 265.3109,-159.5001 265.3109,-166.5001"/>
</g>
<!-- UiComponent  -->
<g id="node7" class="node">
<title>UiComponent </title>
<polygon fill="#fb8072" stroke="#000000" points="361.3297,-252 262.6703,-252 262.6703,-216 361.3297,-216 361.3297,-252"/>
<text text-anchor="middle" x="312" y="-229.8" font-family="Times,serif" font-size="14.00" fill="#000000">UiComponent </text>
</g>
<!-- UiModule&#45;&gt;UiComponent  -->
<g id="edge6" class="edge">
<title>UiModule&#45;&gt;UiComponent </title>
<path fill="none" stroke="#000000" stroke-dasharray="5,2" d="M312,-187.1061C312,-187.1061 312,-205.991 312,-205.991"/>
<polygon fill="#000000" stroke="#000000" points="308.5001,-205.9909 312,-215.991 315.5001,-205.991 308.5001,-205.9909"/>
</g>
<!-- SharedModule -->
<g id="node6" class="node">
<title>SharedModule</title>
<polygon fill="#8dd3c7" stroke="#000000" points="122.4231,-122 119.4231,-126 98.4231,-126 95.4231,-122 23.5769,-122 23.5769,-86 122.4231,-86 122.4231,-122"/>
<text text-anchor="middle" x="73" y="-99.8" font-family="Times,serif" font-size="14.00" fill="#000000">SharedModule</text>
</g>
<!-- SharedModule&#45;&gt;UiModule -->
<g id="edge5" class="edge">
<title>SharedModule&#45;&gt;UiModule</title>
<path fill="none" stroke="#000000" d="M73,-122.2843C73,-143.3211 73,-175 73,-175 73,-175 265.4409,-175 265.4409,-175"/>
<polygon fill="#000000" stroke="#000000" points="265.4409,-178.5001 275.4409,-175 265.4408,-171.5001 265.4409,-178.5001"/>
</g>
</g>
</svg>
