<?xml version="1.0" encoding="UTF-8" standalone="no"?>
<!DOCTYPE svg PUBLIC "-//W3C//DTD SVG 1.1//EN"
 "http://www.w3.org/Graphics/SVG/1.1/DTD/svg11.dtd">
<!-- Generated by graphviz version 2.40.1 (20161225.0304)
 -->
<!-- Title: dependencies Pages: 1 -->
<svg width="1344pt" height="211pt"
 viewBox="0.00 0.00 1344.00 211.00" xmlns="http://www.w3.org/2000/svg" xmlns:xlink="http://www.w3.org/1999/xlink">
<g id="graph0" class="graph" transform="scale(1 1) rotate(0) translate(4 207)">
<title>dependencies</title>
<polygon fill="#ffffff" stroke="transparent" points="-4,4 -4,-207 1340,-207 1340,4 -4,4"/>
<text text-anchor="start" x="647.0091" y="-42.4" font-family="sans-serif" font-weight="bold" font-size="14.00" fill="#000000">Legend</text>
<polygon fill="#ffffb3" stroke="transparent" points="434,-10 434,-30 454,-30 454,-10 434,-10"/>
<text text-anchor="start" x="457.629" y="-15.4" font-family="sans-serif" font-size="14.00" fill="#000000"> &#160;Declarations</text>
<polygon fill="#8dd3c7" stroke="transparent" points="547,-10 547,-30 567,-30 567,-10 547,-10"/>
<text text-anchor="start" x="570.7251" y="-15.4" font-family="sans-serif" font-size="14.00" fill="#000000"> &#160;Module</text>
<polygon fill="#80b1d3" stroke="transparent" points="633,-10 633,-30 653,-30 653,-10 633,-10"/>
<text text-anchor="start" x="656.7812" y="-15.4" font-family="sans-serif" font-size="14.00" fill="#000000"> &#160;Bootstrap</text>
<polygon fill="#fdb462" stroke="transparent" points="730,-10 730,-30 750,-30 750,-10 730,-10"/>
<text text-anchor="start" x="753.6732" y="-15.4" font-family="sans-serif" font-size="14.00" fill="#000000"> &#160;Providers</text>
<polygon fill="#fb8072" stroke="transparent" points="826,-10 826,-30 846,-30 846,-10 826,-10"/>
<text text-anchor="start" x="849.7258" y="-15.4" font-family="sans-serif" font-size="14.00" fill="#000000"> &#160;Exports</text>
<g id="clust1" class="cluster">
<title>cluster_ClientsModule</title>
<polygon fill="none" stroke="#000000" stroke-dasharray="1,5" points="8,-70 8,-195 1328,-195 1328,-70 8,-70"/>
</g>
<g id="clust2" class="cluster">
<title>cluster_ClientsModule_declarations</title>
<polygon fill="none" stroke="#000000" points="300,-78 300,-130 1320,-130 1320,-78 300,-78"/>
</g>
<g id="clust9" class="cluster">
<title>cluster_ClientsModule_imports</title>
<polygon fill="none" stroke="#000000" points="16,-78 16,-130 292,-130 292,-78 16,-78"/>
</g>
<!-- AddClientComponent -->
<g id="node1" class="node">
<title>AddClientComponent</title>
<polygon fill="#ffffb3" stroke="#000000" points="1311.6624,-122 1172.3376,-122 1172.3376,-86 1311.6624,-86 1311.6624,-122"/>
<text text-anchor="middle" x="1242" y="-99.8" font-family="Times,serif" font-size="14.00" fill="#000000">AddClientComponent</text>
</g>
<!-- ClientsModule -->
<g id="node7" class="node">
<title>ClientsModule</title>
<polygon fill="#8dd3c7" stroke="#000000" points="698.7176,-187 695.7176,-191 674.7176,-191 671.7176,-187 599.2824,-187 599.2824,-151 698.7176,-151 698.7176,-187"/>
<text text-anchor="middle" x="649" y="-164.8" font-family="Times,serif" font-size="14.00" fill="#000000">ClientsModule</text>
</g>
<!-- AddClientComponent&#45;&gt;ClientsModule -->
<g id="edge1" class="edge">
<title>AddClientComponent&#45;&gt;ClientsModule</title>
<path fill="none" stroke="#000000" d="M1242,-122.2921C1242,-144.2057 1242,-178 1242,-178 1242,-178 708.7931,-178 708.7931,-178"/>
<polygon fill="#000000" stroke="#000000" points="708.7931,-174.5001 698.7931,-178 708.793,-181.5001 708.7931,-174.5001"/>
</g>
<!-- ClientComponent -->
<g id="node2" class="node">
<title>ClientComponent</title>
<polygon fill="#ffffb3" stroke="#000000" points="1153.5563,-122 1038.4437,-122 1038.4437,-86 1153.5563,-86 1153.5563,-122"/>
<text text-anchor="middle" x="1096" y="-99.8" font-family="Times,serif" font-size="14.00" fill="#000000">ClientComponent</text>
</g>
<!-- ClientComponent&#45;&gt;ClientsModule -->
<g id="edge2" class="edge">
<title>ClientComponent&#45;&gt;ClientsModule</title>
<path fill="none" stroke="#000000" d="M1096,-122.1061C1096,-141.3391 1096,-169 1096,-169 1096,-169 708.9754,-169 708.9754,-169"/>
<polygon fill="#000000" stroke="#000000" points="708.9755,-165.5001 698.9754,-169 708.9754,-172.5001 708.9755,-165.5001"/>
</g>
<!-- FormReactiveClientComponent -->
<g id="node3" class="node">
<title>FormReactiveClientComponent</title>
<polygon fill="#ffffb3" stroke="#000000" points="1020.3654,-122 825.6346,-122 825.6346,-86 1020.3654,-86 1020.3654,-122"/>
<text text-anchor="middle" x="923" y="-99.8" font-family="Times,serif" font-size="14.00" fill="#000000">FormReactiveClientComponent</text>
</g>
<!-- FormReactiveClientComponent&#45;&gt;ClientsModule -->
<g id="edge3" class="edge">
<title>FormReactiveClientComponent&#45;&gt;ClientsModule</title>
<path fill="none" stroke="#000000" d="M923,-122.027C923,-138.3976 923,-160 923,-160 923,-160 708.6193,-160 708.6193,-160"/>
<polygon fill="#000000" stroke="#000000" points="708.6194,-156.5001 698.6193,-160 708.6193,-163.5001 708.6194,-156.5001"/>
</g>
<!-- ListClientsComponent -->
<g id="node4" class="node">
<title>ListClientsComponent</title>
<polygon fill="#ffffb3" stroke="#000000" points="807.2786,-122 664.7214,-122 664.7214,-86 807.2786,-86 807.2786,-122"/>
<text text-anchor="middle" x="736" y="-99.8" font-family="Times,serif" font-size="14.00" fill="#000000">ListClientsComponent</text>
</g>
<!-- ListClientsComponent&#45;&gt;ClientsModule -->
<g id="edge4" class="edge">
<title>ListClientsComponent&#45;&gt;ClientsModule</title>
<path fill="none" stroke="#000000" d="M681.6098,-122.1061C681.6098,-122.1061 681.6098,-140.991 681.6098,-140.991"/>
<polygon fill="#000000" stroke="#000000" points="678.1098,-140.9909 681.6098,-150.991 685.1098,-140.991 678.1098,-140.9909"/>
</g>
<!-- PageAddClientComponent -->
<g id="node5" class="node">
<title>PageAddClientComponent</title>
<polygon fill="#ffffb3" stroke="#000000" points="646.3738,-122 479.6262,-122 479.6262,-86 646.3738,-86 646.3738,-122"/>
<text text-anchor="middle" x="563" y="-99.8" font-family="Times,serif" font-size="14.00" fill="#000000">PageAddClientComponent</text>
</g>
<!-- PageAddClientComponent&#45;&gt;ClientsModule -->
<g id="edge5" class="edge">
<title>PageAddClientComponent&#45;&gt;ClientsModule</title>
<path fill="none" stroke="#000000" d="M622.9141,-122.1061C622.9141,-122.1061 622.9141,-140.991 622.9141,-140.991"/>
<polygon fill="#000000" stroke="#000000" points="619.4142,-140.9909 622.9141,-150.991 626.4142,-140.991 619.4142,-140.9909"/>
</g>
<!-- PagesClientsComponent -->
<g id="node6" class="node">
<title>PagesClientsComponent</title>
<polygon fill="#ffffb3" stroke="#000000" points="461.6568,-122 308.3432,-122 308.3432,-86 461.6568,-86 461.6568,-122"/>
<text text-anchor="middle" x="385" y="-99.8" font-family="Times,serif" font-size="14.00" fill="#000000">PagesClientsComponent</text>
</g>
<!-- PagesClientsComponent&#45;&gt;ClientsModule -->
<g id="edge6" class="edge">
<title>PagesClientsComponent&#45;&gt;ClientsModule</title>
<path fill="none" stroke="#000000" d="M385,-122.027C385,-138.3976 385,-160 385,-160 385,-160 589.3436,-160 589.3436,-160"/>
<polygon fill="#000000" stroke="#000000" points="589.3437,-163.5001 599.3436,-160 589.3436,-156.5001 589.3437,-163.5001"/>
</g>
<!-- ClientsRoutingModule -->
<g id="node8" class="node">
<title>ClientsRoutingModule</title>
<polygon fill="#8dd3c7" stroke="#000000" points="284.3356,-122 281.3356,-126 260.3356,-126 257.3356,-122 139.6644,-122 139.6644,-86 284.3356,-86 284.3356,-122"/>
<text text-anchor="middle" x="212" y="-99.8" font-family="Times,serif" font-size="14.00" fill="#000000">ClientsRoutingModule</text>
</g>
<!-- ClientsRoutingModule&#45;&gt;ClientsModule -->
<g id="edge7" class="edge">
<title>ClientsRoutingModule&#45;&gt;ClientsModule</title>
<path fill="none" stroke="#000000" d="M212,-122.1061C212,-141.3391 212,-169 212,-169 212,-169 589.296,-169 589.296,-169"/>
<polygon fill="#000000" stroke="#000000" points="589.296,-172.5001 599.296,-169 589.296,-165.5001 589.296,-172.5001"/>
</g>
<!-- SharedModule -->
<g id="node9" class="node">
<title>SharedModule</title>
<polygon fill="#8dd3c7" stroke="#000000" points="122.4231,-122 119.4231,-126 98.4231,-126 95.4231,-122 23.5769,-122 23.5769,-86 122.4231,-86 122.4231,-122"/>
<text text-anchor="middle" x="73" y="-99.8" font-family="Times,serif" font-size="14.00" fill="#000000">SharedModule</text>
</g>
<!-- SharedModule&#45;&gt;ClientsModule -->
<g id="edge8" class="edge">
<title>SharedModule&#45;&gt;ClientsModule</title>
<path fill="none" stroke="#000000" d="M73,-122.2921C73,-144.2057 73,-178 73,-178 73,-178 589.142,-178 589.142,-178"/>
<polygon fill="#000000" stroke="#000000" points="589.142,-181.5001 599.142,-178 589.1419,-174.5001 589.142,-181.5001"/>
</g>
</g>
</svg>
