<?xml version="1.0" encoding="UTF-8" standalone="no"?>
<!DOCTYPE svg PUBLIC "-//W3C//DTD SVG 1.1//EN"
 "http://www.w3.org/Graphics/SVG/1.1/DTD/svg11.dtd">
<!-- Generated by graphviz version 2.40.1 (20161225.0304)
 -->
<!-- Title: dependencies Pages: 1 -->
<svg width="677pt" height="284pt"
 viewBox="0.00 0.00 677.00 284.00" xmlns="http://www.w3.org/2000/svg" xmlns:xlink="http://www.w3.org/1999/xlink">
<g id="graph0" class="graph" transform="scale(1 1) rotate(0) translate(4 280)">
<title>dependencies</title>
<polygon fill="#ffffff" stroke="transparent" points="-4,4 -4,-280 673,-280 673,4 -4,4"/>
<text text-anchor="start" x="313.5091" y="-42.4" font-family="sans-serif" font-weight="bold" font-size="14.00" fill="#000000">Legend</text>
<polygon fill="#ffffb3" stroke="transparent" points="100.5,-10 100.5,-30 120.5,-30 120.5,-10 100.5,-10"/>
<text text-anchor="start" x="124.129" y="-15.4" font-family="sans-serif" font-size="14.00" fill="#000000"> &#160;Declarations</text>
<polygon fill="#8dd3c7" stroke="transparent" points="213.5,-10 213.5,-30 233.5,-30 233.5,-10 213.5,-10"/>
<text text-anchor="start" x="237.2251" y="-15.4" font-family="sans-serif" font-size="14.00" fill="#000000"> &#160;Module</text>
<polygon fill="#80b1d3" stroke="transparent" points="299.5,-10 299.5,-30 319.5,-30 319.5,-10 299.5,-10"/>
<text text-anchor="start" x="323.2812" y="-15.4" font-family="sans-serif" font-size="14.00" fill="#000000"> &#160;Bootstrap</text>
<polygon fill="#fdb462" stroke="transparent" points="396.5,-10 396.5,-30 416.5,-30 416.5,-10 396.5,-10"/>
<text text-anchor="start" x="420.1732" y="-15.4" font-family="sans-serif" font-size="14.00" fill="#000000"> &#160;Providers</text>
<polygon fill="#fb8072" stroke="transparent" points="492.5,-10 492.5,-30 512.5,-30 512.5,-10 492.5,-10"/>
<text text-anchor="start" x="516.2258" y="-15.4" font-family="sans-serif" font-size="14.00" fill="#000000"> &#160;Exports</text>
<g id="clust1" class="cluster">
<title>cluster_AppModule</title>
<polygon fill="none" stroke="#000000" stroke-dasharray="1,5" points="8,-70 8,-268 661,-268 661,-70 8,-70"/>
</g>
<g id="clust2" class="cluster">
<title>cluster_AppModule_declarations</title>
<polygon fill="none" stroke="#000000" points="371,-78 371,-130 653,-130 653,-78 371,-78"/>
</g>
<g id="clust5" class="cluster">
<title>cluster_AppModule_imports</title>
<polygon fill="none" stroke="#000000" points="16,-78 16,-130 363,-130 363,-78 16,-78"/>
</g>
<g id="clust7" class="cluster">
<title>cluster_AppModule_bootstrap</title>
<polygon fill="none" stroke="#000000" points="164,-208 164,-260 288,-260 288,-208 164,-208"/>
</g>
<!-- AppComponent -->
<g id="node1" class="node">
<title>AppComponent</title>
<polygon fill="#ffffb3" stroke="#000000" points="644.9399,-122 539.0601,-122 539.0601,-86 644.9399,-86 644.9399,-122"/>
<text text-anchor="middle" x="592" y="-99.8" font-family="Times,serif" font-size="14.00" fill="#000000">AppComponent</text>
</g>
<!-- AppModule -->
<g id="node3" class="node">
<title>AppModule</title>
<polygon fill="#8dd3c7" stroke="#000000" points="267.6571,-187 264.6571,-191 243.6571,-191 240.6571,-187 184.3429,-187 184.3429,-151 267.6571,-151 267.6571,-187"/>
<text text-anchor="middle" x="226" y="-164.8" font-family="Times,serif" font-size="14.00" fill="#000000">AppModule</text>
</g>
<!-- AppComponent&#45;&gt;AppModule -->
<g id="edge1" class="edge">
<title>AppComponent&#45;&gt;AppModule</title>
<path fill="none" stroke="#000000" d="M592,-122.2843C592,-143.3211 592,-175 592,-175 592,-175 277.9849,-175 277.9849,-175"/>
<polygon fill="#000000" stroke="#000000" points="277.9849,-171.5001 267.9849,-175 277.9848,-178.5001 277.9849,-171.5001"/>
</g>
<!-- ContainersComponent -->
<g id="node2" class="node">
<title>ContainersComponent</title>
<polygon fill="#ffffb3" stroke="#000000" points="520.9846,-122 379.0154,-122 379.0154,-86 520.9846,-86 520.9846,-122"/>
<text text-anchor="middle" x="450" y="-99.8" font-family="Times,serif" font-size="14.00" fill="#000000">ContainersComponent</text>
</g>
<!-- ContainersComponent&#45;&gt;AppModule -->
<g id="edge2" class="edge">
<title>ContainersComponent&#45;&gt;AppModule</title>
<path fill="none" stroke="#000000" d="M450,-122.0225C450,-139.3734 450,-163 450,-163 450,-163 277.8699,-163 277.8699,-163"/>
<polygon fill="#000000" stroke="#000000" points="277.87,-159.5001 267.8699,-163 277.8699,-166.5001 277.87,-159.5001"/>
</g>
<!-- AppComponent  -->
<g id="node7" class="node">
<title>AppComponent </title>
<polygon fill="#80b1d3" stroke="#000000" points="280.439,-252 171.561,-252 171.561,-216 280.439,-216 280.439,-252"/>
<text text-anchor="middle" x="226" y="-229.8" font-family="Times,serif" font-size="14.00" fill="#000000">AppComponent </text>
</g>
<!-- AppModule&#45;&gt;AppComponent  -->
<g id="edge7" class="edge">
<title>AppModule&#45;&gt;AppComponent </title>
<path fill="none" stroke="#000000" stroke-dasharray="1,5" d="M226,-187.1061C226,-187.1061 226,-205.991 226,-205.991"/>
<polygon fill="#000000" stroke="#000000" points="222.5001,-205.9909 226,-215.991 229.5001,-205.991 222.5001,-205.9909"/>
</g>
<!-- AppRoutingModule -->
<g id="node4" class="node">
<title>AppRoutingModule</title>
<polygon fill="#8dd3c7" stroke="#000000" points="355.2744,-122 352.2744,-126 331.2744,-126 328.2744,-122 226.7256,-122 226.7256,-86 355.2744,-86 355.2744,-122"/>
<text text-anchor="middle" x="291" y="-99.8" font-family="Times,serif" font-size="14.00" fill="#000000">AppRoutingModule</text>
</g>
<!-- AppRoutingModule&#45;&gt;AppModule -->
<g id="edge3" class="edge">
<title>AppRoutingModule&#45;&gt;AppModule</title>
<path fill="none" stroke="#000000" d="M247.2206,-122.1061C247.2206,-122.1061 247.2206,-140.991 247.2206,-140.991"/>
<polygon fill="#000000" stroke="#000000" points="243.7206,-140.9909 247.2206,-150.991 250.7206,-140.991 243.7206,-140.9909"/>
</g>
<!-- LoginModule -->
<g id="node5" class="node">
<title>LoginModule</title>
<polygon fill="#8dd3c7" stroke="#000000" points="208.493,-122 205.493,-126 184.493,-126 181.493,-122 115.507,-122 115.507,-86 208.493,-86 208.493,-122"/>
<text text-anchor="middle" x="162" y="-99.8" font-family="Times,serif" font-size="14.00" fill="#000000">LoginModule</text>
</g>
<!-- LoginModule&#45;&gt;AppModule -->
<g id="edge4" class="edge">
<title>LoginModule&#45;&gt;AppModule</title>
<path fill="none" stroke="#000000" d="M192.28,-122.1061C192.28,-122.1061 192.28,-140.991 192.28,-140.991"/>
<polygon fill="#000000" stroke="#000000" points="188.7801,-140.9909 192.28,-150.991 195.7801,-140.991 188.7801,-140.9909"/>
</g>
<!-- LoginModule&#45;&gt;AppModule -->
<g id="edge5" class="edge">
<title>LoginModule&#45;&gt;AppModule</title>
<path fill="none" stroke="#000000" d="M200.3883,-122.1061C200.3883,-122.1061 200.3883,-140.991 200.3883,-140.991"/>
<polygon fill="#000000" stroke="#000000" points="196.8884,-140.9909 200.3883,-150.991 203.8884,-140.991 196.8884,-140.9909"/>
</g>
<!-- UiModule -->
<g id="node6" class="node">
<title>UiModule</title>
<polygon fill="#8dd3c7" stroke="#000000" points="97.5484,-122 94.5484,-126 73.5484,-126 70.5484,-122 24.4516,-122 24.4516,-86 97.5484,-86 97.5484,-122"/>
<text text-anchor="middle" x="61" y="-99.8" font-family="Times,serif" font-size="14.00" fill="#000000">UiModule</text>
</g>
<!-- UiModule&#45;&gt;AppModule -->
<g id="edge6" class="edge">
<title>UiModule&#45;&gt;AppModule</title>
<path fill="none" stroke="#000000" d="M61,-122.1061C61,-141.3391 61,-169 61,-169 61,-169 173.9366,-169 173.9366,-169"/>
<polygon fill="#000000" stroke="#000000" points="173.9366,-172.5001 183.9366,-169 173.9366,-165.5001 173.9366,-172.5001"/>
</g>
</g>
</svg>
