<?xml version="1.0" encoding="UTF-8" standalone="no"?>
<!DOCTYPE svg PUBLIC "-//W3C//DTD SVG 1.1//EN"
 "http://www.w3.org/Graphics/SVG/1.1/DTD/svg11.dtd">
<!-- Generated by graphviz version 2.40.1 (20161225.0304)
 -->
<!-- Title: dependencies Pages: 1 -->
<svg width="1683pt" height="211pt"
 viewBox="0.00 0.00 1683.00 211.00" xmlns="http://www.w3.org/2000/svg" xmlns:xlink="http://www.w3.org/1999/xlink">
<g id="graph0" class="graph" transform="scale(1 1) rotate(0) translate(4 207)">
<title>dependencies</title>
<polygon fill="#ffffff" stroke="transparent" points="-4,4 -4,-207 1679,-207 1679,4 -4,4"/>
<text text-anchor="start" x="816.5091" y="-42.4" font-family="sans-serif" font-weight="bold" font-size="14.00" fill="#000000">Legend</text>
<polygon fill="#ffffb3" stroke="transparent" points="603.5,-10 603.5,-30 623.5,-30 623.5,-10 603.5,-10"/>
<text text-anchor="start" x="627.129" y="-15.4" font-family="sans-serif" font-size="14.00" fill="#000000"> &#160;Declarations</text>
<polygon fill="#8dd3c7" stroke="transparent" points="716.5,-10 716.5,-30 736.5,-30 736.5,-10 716.5,-10"/>
<text text-anchor="start" x="740.2251" y="-15.4" font-family="sans-serif" font-size="14.00" fill="#000000"> &#160;Module</text>
<polygon fill="#80b1d3" stroke="transparent" points="802.5,-10 802.5,-30 822.5,-30 822.5,-10 802.5,-10"/>
<text text-anchor="start" x="826.2812" y="-15.4" font-family="sans-serif" font-size="14.00" fill="#000000"> &#160;Bootstrap</text>
<polygon fill="#fdb462" stroke="transparent" points="899.5,-10 899.5,-30 919.5,-30 919.5,-10 899.5,-10"/>
<text text-anchor="start" x="923.1732" y="-15.4" font-family="sans-serif" font-size="14.00" fill="#000000"> &#160;Providers</text>
<polygon fill="#fb8072" stroke="transparent" points="995.5,-10 995.5,-30 1015.5,-30 1015.5,-10 995.5,-10"/>
<text text-anchor="start" x="1019.2258" y="-15.4" font-family="sans-serif" font-size="14.00" fill="#000000"> &#160;Exports</text>
<g id="clust1" class="cluster">
<title>cluster_PrestationsModule</title>
<polygon fill="none" stroke="#000000" stroke-dasharray="1,5" points="8,-70 8,-195 1667,-195 1667,-70 8,-70"/>
</g>
<g id="clust2" class="cluster">
<title>cluster_PrestationsModule_declarations</title>
<polygon fill="none" stroke="#000000" points="322,-78 322,-130 1659,-130 1659,-78 322,-78"/>
</g>
<g id="clust10" class="cluster">
<title>cluster_PrestationsModule_imports</title>
<polygon fill="none" stroke="#000000" points="16,-78 16,-130 314,-130 314,-78 16,-78"/>
</g>
<!-- AddPrestationComponent -->
<g id="node1" class="node">
<title>AddPrestationComponent</title>
<polygon fill="#ffffb3" stroke="#000000" points="1650.9284,-122 1489.0716,-122 1489.0716,-86 1650.9284,-86 1650.9284,-122"/>
<text text-anchor="middle" x="1570" y="-99.8" font-family="Times,serif" font-size="14.00" fill="#000000">AddPrestationComponent</text>
</g>
<!-- PrestationsModule -->
<g id="node8" class="node">
<title>PrestationsModule</title>
<polygon fill="#8dd3c7" stroke="#000000" points="833.4832,-187 830.4832,-191 809.4832,-191 806.4832,-187 712.5168,-187 712.5168,-151 833.4832,-151 833.4832,-187"/>
<text text-anchor="middle" x="773" y="-164.8" font-family="Times,serif" font-size="14.00" fill="#000000">PrestationsModule</text>
</g>
<!-- AddPrestationComponent&#45;&gt;PrestationsModule -->
<g id="edge1" class="edge">
<title>AddPrestationComponent&#45;&gt;PrestationsModule</title>
<path fill="none" stroke="#000000" d="M1570,-122.0109C1570,-144.4852 1570,-180 1570,-180 1570,-180 843.5587,-180 843.5587,-180"/>
<polygon fill="#000000" stroke="#000000" points="843.5587,-176.5001 833.5587,-180 843.5587,-183.5001 843.5587,-176.5001"/>
</g>
<!-- FormPrestationComponent -->
<g id="node2" class="node">
<title>FormPrestationComponent</title>
<polygon fill="#ffffb3" stroke="#000000" points="1470.6554,-122 1303.3446,-122 1303.3446,-86 1470.6554,-86 1470.6554,-122"/>
<text text-anchor="middle" x="1387" y="-99.8" font-family="Times,serif" font-size="14.00" fill="#000000">FormPrestationComponent</text>
</g>
<!-- FormPrestationComponent&#45;&gt;PrestationsModule -->
<g id="edge2" class="edge">
<title>FormPrestationComponent&#45;&gt;PrestationsModule</title>
<path fill="none" stroke="#000000" d="M1387,-122.1289C1387,-142.5724 1387,-173 1387,-173 1387,-173 843.5531,-173 843.5531,-173"/>
<polygon fill="#000000" stroke="#000000" points="843.5531,-169.5001 833.5531,-173 843.553,-176.5001 843.5531,-169.5001"/>
</g>
<!-- FormReactivePrestationComponent -->
<g id="node3" class="node">
<title>FormReactivePrestationComponent</title>
<polygon fill="#ffffb3" stroke="#000000" points="1285.1315,-122 1068.8685,-122 1068.8685,-86 1285.1315,-86 1285.1315,-122"/>
<text text-anchor="middle" x="1177" y="-99.8" font-family="Times,serif" font-size="14.00" fill="#000000">FormReactivePrestationComponent</text>
</g>
<!-- FormReactivePrestationComponent&#45;&gt;PrestationsModule -->
<g id="edge3" class="edge">
<title>FormReactivePrestationComponent&#45;&gt;PrestationsModule</title>
<path fill="none" stroke="#000000" d="M1177,-122.2667C1177,-140.5552 1177,-166 1177,-166 1177,-166 843.9203,-166 843.9203,-166"/>
<polygon fill="#000000" stroke="#000000" points="843.9203,-162.5001 833.9203,-166 843.9203,-169.5001 843.9203,-162.5001"/>
</g>
<!-- ListPrestationsComponent -->
<g id="node4" class="node">
<title>ListPrestationsComponent</title>
<polygon fill="#ffffb3" stroke="#000000" points="1050.0448,-122 885.9552,-122 885.9552,-86 1050.0448,-86 1050.0448,-122"/>
<text text-anchor="middle" x="968" y="-99.8" font-family="Times,serif" font-size="14.00" fill="#000000">ListPrestationsComponent</text>
</g>
<!-- ListPrestationsComponent&#45;&gt;PrestationsModule -->
<g id="edge4" class="edge">
<title>ListPrestationsComponent&#45;&gt;PrestationsModule</title>
<path fill="none" stroke="#000000" d="M968,-122.0091C968,-138.0494 968,-159 968,-159 968,-159 843.6303,-159 843.6303,-159"/>
<polygon fill="#000000" stroke="#000000" points="843.6303,-155.5001 833.6303,-159 843.6303,-162.5001 843.6303,-155.5001"/>
</g>
<!-- PageAddPrestationComponent -->
<g id="node5" class="node">
<title>PageAddPrestationComponent</title>
<polygon fill="#ffffb3" stroke="#000000" points="867.1399,-122 678.8601,-122 678.8601,-86 867.1399,-86 867.1399,-122"/>
<text text-anchor="middle" x="773" y="-99.8" font-family="Times,serif" font-size="14.00" fill="#000000">PageAddPrestationComponent</text>
</g>
<!-- PageAddPrestationComponent&#45;&gt;PrestationsModule -->
<g id="edge5" class="edge">
<title>PageAddPrestationComponent&#45;&gt;PrestationsModule</title>
<path fill="none" stroke="#000000" d="M773,-122.1061C773,-122.1061 773,-140.991 773,-140.991"/>
<polygon fill="#000000" stroke="#000000" points="769.5001,-140.9909 773,-150.991 776.5001,-140.991 769.5001,-140.9909"/>
</g>
<!-- PagesPrestationsComponent -->
<g id="node6" class="node">
<title>PagesPrestationsComponent</title>
<polygon fill="#ffffb3" stroke="#000000" points="660.9227,-122 485.0773,-122 485.0773,-86 660.9227,-86 660.9227,-122"/>
<text text-anchor="middle" x="573" y="-99.8" font-family="Times,serif" font-size="14.00" fill="#000000">PagesPrestationsComponent</text>
</g>
<!-- PagesPrestationsComponent&#45;&gt;PrestationsModule -->
<g id="edge6" class="edge">
<title>PagesPrestationsComponent&#45;&gt;PrestationsModule</title>
<path fill="none" stroke="#000000" d="M573,-122.0091C573,-138.0494 573,-159 573,-159 573,-159 702.4507,-159 702.4507,-159"/>
<polygon fill="#000000" stroke="#000000" points="702.4507,-162.5001 712.4507,-159 702.4506,-155.5001 702.4507,-162.5001"/>
</g>
<!-- PrestationComponent -->
<g id="node7" class="node">
<title>PrestationComponent</title>
<polygon fill="#ffffb3" stroke="#000000" points="467.8216,-122 330.1784,-122 330.1784,-86 467.8216,-86 467.8216,-122"/>
<text text-anchor="middle" x="399" y="-99.8" font-family="Times,serif" font-size="14.00" fill="#000000">PrestationComponent</text>
</g>
<!-- PrestationComponent&#45;&gt;PrestationsModule -->
<g id="edge7" class="edge">
<title>PrestationComponent&#45;&gt;PrestationsModule</title>
<path fill="none" stroke="#000000" d="M399,-122.2667C399,-140.5552 399,-166 399,-166 399,-166 702.4948,-166 702.4948,-166"/>
<polygon fill="#000000" stroke="#000000" points="702.4948,-169.5001 712.4948,-166 702.4947,-162.5001 702.4948,-169.5001"/>
</g>
<!-- PrestationsRoutingModule -->
<g id="node9" class="node">
<title>PrestationsRoutingModule</title>
<polygon fill="#8dd3c7" stroke="#000000" points="306.101,-122 303.101,-126 282.101,-126 279.101,-122 139.899,-122 139.899,-86 306.101,-86 306.101,-122"/>
<text text-anchor="middle" x="223" y="-99.8" font-family="Times,serif" font-size="14.00" fill="#000000">PrestationsRoutingModule</text>
</g>
<!-- PrestationsRoutingModule&#45;&gt;PrestationsModule -->
<g id="edge8" class="edge">
<title>PrestationsRoutingModule&#45;&gt;PrestationsModule</title>
<path fill="none" stroke="#000000" d="M223,-122.1289C223,-142.5724 223,-173 223,-173 223,-173 702.3032,-173 702.3032,-173"/>
<polygon fill="#000000" stroke="#000000" points="702.3033,-176.5001 712.3032,-173 702.3032,-169.5001 702.3033,-176.5001"/>
</g>
<!-- SharedModule -->
<g id="node10" class="node">
<title>SharedModule</title>
<polygon fill="#8dd3c7" stroke="#000000" points="122.4231,-122 119.4231,-126 98.4231,-126 95.4231,-122 23.5769,-122 23.5769,-86 122.4231,-86 122.4231,-122"/>
<text text-anchor="middle" x="73" y="-99.8" font-family="Times,serif" font-size="14.00" fill="#000000">SharedModule</text>
</g>
<!-- SharedModule&#45;&gt;PrestationsModule -->
<g id="edge9" class="edge">
<title>SharedModule&#45;&gt;PrestationsModule</title>
<path fill="none" stroke="#000000" d="M73,-122.0109C73,-144.4852 73,-180 73,-180 73,-180 702.4087,-180 702.4087,-180"/>
<polygon fill="#000000" stroke="#000000" points="702.4087,-183.5001 712.4087,-180 702.4086,-176.5001 702.4087,-183.5001"/>
</g>
</g>
</svg>
