<?xml version="1.0" encoding="UTF-8" standalone="no"?>
<!DOCTYPE svg PUBLIC "-//W3C//DTD SVG 1.1//EN"
 "http://www.w3.org/Graphics/SVG/1.1/DTD/svg11.dtd">
<!-- Generated by graphviz version 2.40.1 (20161225.0304)
 -->
<!-- Title: dependencies Pages: 1 -->
<svg width="5699pt" height="374pt"
 viewBox="0.00 0.00 5699.00 374.00" xmlns="http://www.w3.org/2000/svg" xmlns:xlink="http://www.w3.org/1999/xlink">
<g id="graph0" class="graph" transform="scale(1 1) rotate(0) translate(4 370)">
<title>dependencies</title>
<polygon fill="#ffffff" stroke="transparent" points="-4,4 -4,-370 5695,-370 5695,4 -4,4"/>
<text text-anchor="start" x="2824.5091" y="-42.4" font-family="sans-serif" font-weight="bold" font-size="14.00" fill="#000000">Legend</text>
<polygon fill="#ffffb3" stroke="transparent" points="2611.5,-10 2611.5,-30 2631.5,-30 2631.5,-10 2611.5,-10"/>
<text text-anchor="start" x="2635.129" y="-15.4" font-family="sans-serif" font-size="14.00" fill="#000000"> &#160;Declarations</text>
<polygon fill="#8dd3c7" stroke="transparent" points="2724.5,-10 2724.5,-30 2744.5,-30 2744.5,-10 2724.5,-10"/>
<text text-anchor="start" x="2748.2251" y="-15.4" font-family="sans-serif" font-size="14.00" fill="#000000"> &#160;Module</text>
<polygon fill="#80b1d3" stroke="transparent" points="2810.5,-10 2810.5,-30 2830.5,-30 2830.5,-10 2810.5,-10"/>
<text text-anchor="start" x="2834.2812" y="-15.4" font-family="sans-serif" font-size="14.00" fill="#000000"> &#160;Bootstrap</text>
<polygon fill="#fdb462" stroke="transparent" points="2907.5,-10 2907.5,-30 2927.5,-30 2927.5,-10 2907.5,-10"/>
<text text-anchor="start" x="2931.1732" y="-15.4" font-family="sans-serif" font-size="14.00" fill="#000000"> &#160;Providers</text>
<polygon fill="#fb8072" stroke="transparent" points="3003.5,-10 3003.5,-30 3023.5,-30 3023.5,-10 3003.5,-10"/>
<text text-anchor="start" x="3027.2258" y="-15.4" font-family="sans-serif" font-size="14.00" fill="#000000"> &#160;Exports</text>
<g id="clust1" class="cluster">
<title>cluster_AppModule</title>
<polygon fill="none" stroke="#000000" stroke-dasharray="1,5" points="417,-146 417,-358 1070,-358 1070,-146 417,-146"/>
</g>
<g id="clust2" class="cluster">
<title>cluster_AppModule_declarations</title>
<polygon fill="none" stroke="#000000" points="780,-154 780,-206 1062,-206 1062,-154 780,-154"/>
</g>
<g id="clust5" class="cluster">
<title>cluster_AppModule_imports</title>
<polygon fill="none" stroke="#000000" points="425,-154 425,-206 772,-206 772,-154 425,-154"/>
</g>
<g id="clust7" class="cluster">
<title>cluster_AppModule_bootstrap</title>
<polygon fill="none" stroke="#000000" points="573,-298 573,-350 697,-350 697,-298 573,-298"/>
</g>
<g id="clust15" class="cluster">
<title>cluster_ClientsModule</title>
<polygon fill="none" stroke="#000000" stroke-dasharray="1,5" points="1078,-70 1078,-206 2397,-206 2397,-70 1078,-70"/>
</g>
<g id="clust16" class="cluster">
<title>cluster_ClientsModule_declarations</title>
<polygon fill="none" stroke="#000000" points="1086,-78 1086,-130 2105,-130 2105,-78 1086,-78"/>
</g>
<g id="clust23" class="cluster">
<title>cluster_ClientsModule_imports</title>
<polygon fill="none" stroke="#000000" points="2113,-78 2113,-130 2389,-130 2389,-78 2113,-78"/>
</g>
<g id="clust33" class="cluster">
<title>cluster_LoginModule</title>
<polygon fill="none" stroke="#000000" stroke-dasharray="1,5" points="664,-70 664,-138 1000,-138 1000,-70 664,-70"/>
</g>
<g id="clust34" class="cluster">
<title>cluster_LoginModule_declarations</title>
<polygon fill="none" stroke="#000000" points="834,-78 834,-130 992,-130 992,-78 834,-78"/>
</g>
<g id="clust36" class="cluster">
<title>cluster_LoginModule_imports</title>
<polygon fill="none" stroke="#000000" points="672,-78 672,-130 826,-130 826,-78 672,-78"/>
</g>
<g id="clust46" class="cluster">
<title>cluster_PageNotFoundModule</title>
<polygon fill="none" stroke="#000000" stroke-dasharray="1,5" points="5273,-70 5273,-206 5683,-206 5683,-70 5273,-70"/>
</g>
<g id="clust47" class="cluster">
<title>cluster_PageNotFoundModule_declarations</title>
<polygon fill="none" stroke="#000000" points="5493,-78 5493,-130 5675,-130 5675,-78 5493,-78"/>
</g>
<g id="clust49" class="cluster">
<title>cluster_PageNotFoundModule_imports</title>
<polygon fill="none" stroke="#000000" points="5281,-78 5281,-130 5485,-130 5485,-78 5281,-78"/>
</g>
<g id="clust59" class="cluster">
<title>cluster_PrestationsModule</title>
<polygon fill="none" stroke="#000000" stroke-dasharray="1,5" points="3722,-70 3722,-206 5265,-206 5265,-70 3722,-70"/>
</g>
<g id="clust60" class="cluster">
<title>cluster_PrestationsModule_declarations</title>
<polygon fill="none" stroke="#000000" points="3920,-78 3920,-130 5257,-130 5257,-78 3920,-78"/>
</g>
<g id="clust68" class="cluster">
<title>cluster_PrestationsModule_imports</title>
<polygon fill="none" stroke="#000000" points="3730,-78 3730,-130 3912,-130 3912,-78 3730,-78"/>
</g>
<g id="clust78" class="cluster">
<title>cluster_SharedModule</title>
<polygon fill="none" stroke="#000000" stroke-dasharray="1,5" points="2405,-146 2405,-214 3714,-214 3714,-146 2405,-146"/>
</g>
<g id="clust79" class="cluster">
<title>cluster_SharedModule_declarations</title>
<polygon fill="none" stroke="#000000" points="3212,-154 3212,-206 3706,-206 3706,-154 3212,-154"/>
</g>
<g id="clust84" class="cluster">
<title>cluster_SharedModule_imports</title>
<polygon fill="none" stroke="#000000" points="3070,-154 3070,-206 3204,-206 3204,-154 3070,-154"/>
</g>
<g id="clust85" class="cluster">
<title>cluster_SharedModule_exports</title>
<polygon fill="none" stroke="#000000" points="2413,-154 2413,-206 3062,-206 3062,-154 2413,-154"/>
</g>
<g id="clust88" class="cluster">
<title>cluster_TemplatesModule</title>
<polygon fill="none" stroke="#000000" stroke-dasharray="1,5" points="2797,-222 2797,-290 3472,-290 3472,-222 2797,-222"/>
</g>
<g id="clust89" class="cluster">
<title>cluster_TemplatesModule_declarations</title>
<polygon fill="none" stroke="#000000" points="3142,-230 3142,-282 3464,-282 3464,-230 3142,-230"/>
</g>
<g id="clust93" class="cluster">
<title>cluster_TemplatesModule_exports</title>
<polygon fill="none" stroke="#000000" points="2805,-230 2805,-282 3134,-282 3134,-230 2805,-230"/>
</g>
<g id="clust96" class="cluster">
<title>cluster_UiModule</title>
<polygon fill="none" stroke="#000000" stroke-dasharray="1,5" points="8,-70 8,-138 656,-138 656,-70 8,-70"/>
</g>
<g id="clust97" class="cluster">
<title>cluster_UiModule_declarations</title>
<polygon fill="none" stroke="#000000" points="138,-78 138,-130 648,-130 648,-78 138,-78"/>
</g>
<g id="clust103" class="cluster">
<title>cluster_UiModule_exports</title>
<polygon fill="none" stroke="#000000" points="16,-78 16,-130 130,-130 130,-78 16,-78"/>
</g>
<!-- AppComponent -->
<g id="node1" class="node">
<title>AppComponent</title>
<polygon fill="#ffffb3" stroke="#000000" points="1053.9399,-198 948.0601,-198 948.0601,-162 1053.9399,-162 1053.9399,-198"/>
<text text-anchor="middle" x="1001" y="-175.8" font-family="Times,serif" font-size="14.00" fill="#000000">AppComponent</text>
</g>
<!-- AppModule -->
<g id="node3" class="node">
<title>AppModule</title>
<polygon fill="#8dd3c7" stroke="#000000" points="676.6571,-274 673.6571,-278 652.6571,-278 649.6571,-274 593.3429,-274 593.3429,-238 676.6571,-238 676.6571,-274"/>
<text text-anchor="middle" x="635" y="-251.8" font-family="Times,serif" font-size="14.00" fill="#000000">AppModule</text>
</g>
<!-- AppComponent&#45;&gt;AppModule -->
<g id="edge1" class="edge">
<title>AppComponent&#45;&gt;AppModule</title>
<path fill="none" stroke="#000000" d="M1001,-198.1985C1001,-222.3563 1001,-262 1001,-262 1001,-262 686.9849,-262 686.9849,-262"/>
<polygon fill="#000000" stroke="#000000" points="686.9849,-258.5001 676.9849,-262 686.9848,-265.5001 686.9849,-258.5001"/>
</g>
<!-- ContainersComponent -->
<g id="node2" class="node">
<title>ContainersComponent</title>
<polygon fill="#ffffb3" stroke="#000000" points="929.9846,-198 788.0154,-198 788.0154,-162 929.9846,-162 929.9846,-198"/>
<text text-anchor="middle" x="859" y="-175.8" font-family="Times,serif" font-size="14.00" fill="#000000">ContainersComponent</text>
</g>
<!-- ContainersComponent&#45;&gt;AppModule -->
<g id="edge2" class="edge">
<title>ContainersComponent&#45;&gt;AppModule</title>
<path fill="none" stroke="#000000" d="M859,-198.0267C859,-218.7672 859,-250 859,-250 859,-250 686.8699,-250 686.8699,-250"/>
<polygon fill="#000000" stroke="#000000" points="686.87,-246.5001 676.8699,-250 686.8699,-253.5001 686.87,-246.5001"/>
</g>
<!-- AppComponent  -->
<g id="node7" class="node">
<title>AppComponent </title>
<polygon fill="#80b1d3" stroke="#000000" points="689.439,-342 580.561,-342 580.561,-306 689.439,-306 689.439,-342"/>
<text text-anchor="middle" x="635" y="-319.8" font-family="Times,serif" font-size="14.00" fill="#000000">AppComponent </text>
</g>
<!-- AppModule&#45;&gt;AppComponent  -->
<g id="edge7" class="edge">
<title>AppModule&#45;&gt;AppComponent </title>
<path fill="none" stroke="#000000" stroke-dasharray="1,5" d="M635,-274.2228C635,-274.2228 635,-295.7269 635,-295.7269"/>
<polygon fill="#000000" stroke="#000000" points="631.5001,-295.7269 635,-305.7269 638.5001,-295.727 631.5001,-295.7269"/>
</g>
<!-- AppRoutingModule -->
<g id="node4" class="node">
<title>AppRoutingModule</title>
<polygon fill="#8dd3c7" stroke="#000000" points="764.2744,-198 761.2744,-202 740.2744,-202 737.2744,-198 635.7256,-198 635.7256,-162 764.2744,-162 764.2744,-198"/>
<text text-anchor="middle" x="700" y="-175.8" font-family="Times,serif" font-size="14.00" fill="#000000">AppRoutingModule</text>
</g>
<!-- AppRoutingModule&#45;&gt;AppModule -->
<g id="edge3" class="edge">
<title>AppRoutingModule&#45;&gt;AppModule</title>
<path fill="none" stroke="#000000" d="M656.2206,-198.0109C656.2206,-198.0109 656.2206,-227.855 656.2206,-227.855"/>
<polygon fill="#000000" stroke="#000000" points="652.7206,-227.8549 656.2206,-237.855 659.7206,-227.855 652.7206,-227.8549"/>
</g>
<!-- LoginModule -->
<g id="node5" class="node">
<title>LoginModule</title>
<polygon fill="#8dd3c7" stroke="#000000" points="617.493,-198 614.493,-202 593.493,-202 590.493,-198 524.507,-198 524.507,-162 617.493,-162 617.493,-198"/>
<text text-anchor="middle" x="571" y="-175.8" font-family="Times,serif" font-size="14.00" fill="#000000">LoginModule</text>
</g>
<!-- LoginModule&#45;&gt;AppModule -->
<g id="edge4" class="edge">
<title>LoginModule&#45;&gt;AppModule</title>
<path fill="none" stroke="#000000" d="M601.28,-198.0109C601.28,-198.0109 601.28,-227.855 601.28,-227.855"/>
<polygon fill="#000000" stroke="#000000" points="597.7801,-227.8549 601.28,-237.855 604.7801,-227.855 597.7801,-227.8549"/>
</g>
<!-- LoginModule&#45;&gt;AppModule -->
<g id="edge5" class="edge">
<title>LoginModule&#45;&gt;AppModule</title>
<path fill="none" stroke="#000000" d="M609.3883,-198.0109C609.3883,-198.0109 609.3883,-227.855 609.3883,-227.855"/>
<polygon fill="#000000" stroke="#000000" points="605.8884,-227.8549 609.3883,-237.855 612.8884,-227.855 605.8884,-227.8549"/>
</g>
<!-- UiModule -->
<g id="node6" class="node">
<title>UiModule</title>
<polygon fill="#8dd3c7" stroke="#000000" points="506.5484,-198 503.5484,-202 482.5484,-202 479.5484,-198 433.4516,-198 433.4516,-162 506.5484,-162 506.5484,-198"/>
<text text-anchor="middle" x="470" y="-175.8" font-family="Times,serif" font-size="14.00" fill="#000000">UiModule</text>
</g>
<!-- UiModule&#45;&gt;AppModule -->
<g id="edge6" class="edge">
<title>UiModule&#45;&gt;AppModule</title>
<path fill="none" stroke="#000000" d="M470,-198.0109C470,-220.4852 470,-256 470,-256 470,-256 582.9366,-256 582.9366,-256"/>
<polygon fill="#000000" stroke="#000000" points="582.9366,-259.5001 592.9366,-256 582.9366,-252.5001 582.9366,-259.5001"/>
</g>
<!-- UiComponent  -->
<g id="node49" class="node">
<title>UiComponent </title>
<polygon fill="#fb8072" stroke="#000000" points="122.3297,-122 23.6703,-122 23.6703,-86 122.3297,-86 122.3297,-122"/>
<text text-anchor="middle" x="73" y="-99.8" font-family="Times,serif" font-size="14.00" fill="#000000">UiComponent </text>
</g>
<!-- UiModule&#45;&gt;UiComponent  -->
<g id="edge48" class="edge">
<title>UiModule&#45;&gt;UiComponent </title>
<path fill="none" stroke="#000000" stroke-dasharray="5,2" d="M433.3628,-189C335.082,-189 73,-189 73,-189 73,-189 73,-132.0263 73,-132.0263"/>
<polygon fill="#000000" stroke="#000000" points="76.5001,-132.0263 73,-122.0263 69.5001,-132.0263 76.5001,-132.0263"/>
</g>
<!-- AddClientComponent -->
<g id="node8" class="node">
<title>AddClientComponent</title>
<polygon fill="#ffffb3" stroke="#000000" points="1740.6624,-122 1601.3376,-122 1601.3376,-86 1740.6624,-86 1740.6624,-122"/>
<text text-anchor="middle" x="1671" y="-99.8" font-family="Times,serif" font-size="14.00" fill="#000000">AddClientComponent</text>
</g>
<!-- ClientsModule -->
<g id="node14" class="node">
<title>ClientsModule</title>
<polygon fill="#8dd3c7" stroke="#000000" points="1802.7176,-198 1799.7176,-202 1778.7176,-202 1775.7176,-198 1703.2824,-198 1703.2824,-162 1802.7176,-162 1802.7176,-198"/>
<text text-anchor="middle" x="1753" y="-175.8" font-family="Times,serif" font-size="14.00" fill="#000000">ClientsModule</text>
</g>
<!-- AddClientComponent&#45;&gt;ClientsModule -->
<g id="edge8" class="edge">
<title>AddClientComponent&#45;&gt;ClientsModule</title>
<path fill="none" stroke="#000000" d="M1722.1112,-122.0109C1722.1112,-122.0109 1722.1112,-151.855 1722.1112,-151.855"/>
<polygon fill="#000000" stroke="#000000" points="1718.6112,-151.8549 1722.1112,-161.855 1725.6112,-151.855 1718.6112,-151.8549"/>
</g>
<!-- ClientComponent -->
<g id="node9" class="node">
<title>ClientComponent</title>
<polygon fill="#ffffb3" stroke="#000000" points="1582.5563,-122 1467.4437,-122 1467.4437,-86 1582.5563,-86 1582.5563,-122"/>
<text text-anchor="middle" x="1525" y="-99.8" font-family="Times,serif" font-size="14.00" fill="#000000">ClientComponent</text>
</g>
<!-- ClientComponent&#45;&gt;ClientsModule -->
<g id="edge9" class="edge">
<title>ClientComponent&#45;&gt;ClientsModule</title>
<path fill="none" stroke="#000000" d="M1525,-122.308C1525,-142.1455 1525,-171 1525,-171 1525,-171 1693.2462,-171 1693.2462,-171"/>
<polygon fill="#000000" stroke="#000000" points="1693.2462,-174.5001 1703.2462,-171 1693.2461,-167.5001 1693.2462,-174.5001"/>
</g>
<!-- FormReactiveClientComponent -->
<g id="node10" class="node">
<title>FormReactiveClientComponent</title>
<polygon fill="#ffffb3" stroke="#000000" points="1449.3654,-122 1254.6346,-122 1254.6346,-86 1449.3654,-86 1449.3654,-122"/>
<text text-anchor="middle" x="1352" y="-99.8" font-family="Times,serif" font-size="14.00" fill="#000000">FormReactiveClientComponent</text>
</g>
<!-- FormReactiveClientComponent&#45;&gt;ClientsModule -->
<g id="edge10" class="edge">
<title>FormReactiveClientComponent&#45;&gt;ClientsModule</title>
<path fill="none" stroke="#000000" d="M1352,-122.0109C1352,-144.4852 1352,-180 1352,-180 1352,-180 1693.0239,-180 1693.0239,-180"/>
<polygon fill="#000000" stroke="#000000" points="1693.0239,-183.5001 1703.0239,-180 1693.0238,-176.5001 1693.0239,-183.5001"/>
</g>
<!-- ListClientsComponent -->
<g id="node11" class="node">
<title>ListClientsComponent</title>
<polygon fill="#ffffb3" stroke="#000000" points="1236.2786,-122 1093.7214,-122 1093.7214,-86 1236.2786,-86 1236.2786,-122"/>
<text text-anchor="middle" x="1165" y="-99.8" font-family="Times,serif" font-size="14.00" fill="#000000">ListClientsComponent</text>
</g>
<!-- ListClientsComponent&#45;&gt;ClientsModule -->
<g id="edge11" class="edge">
<title>ListClientsComponent&#45;&gt;ClientsModule</title>
<path fill="none" stroke="#000000" d="M1165,-122.0263C1165,-146.9773 1165,-189 1165,-189 1165,-189 1693.3742,-189 1693.3742,-189"/>
<polygon fill="#000000" stroke="#000000" points="1693.3742,-192.5001 1703.3742,-189 1693.3742,-185.5001 1693.3742,-192.5001"/>
</g>
<!-- PageAddClientComponent -->
<g id="node12" class="node">
<title>PageAddClientComponent</title>
<polygon fill="#ffffb3" stroke="#000000" points="2097.3738,-122 1930.6262,-122 1930.6262,-86 2097.3738,-86 2097.3738,-122"/>
<text text-anchor="middle" x="2014" y="-99.8" font-family="Times,serif" font-size="14.00" fill="#000000">PageAddClientComponent</text>
</g>
<!-- PageAddClientComponent&#45;&gt;ClientsModule -->
<g id="edge12" class="edge">
<title>PageAddClientComponent&#45;&gt;ClientsModule</title>
<path fill="none" stroke="#000000" d="M2014,-122.308C2014,-142.1455 2014,-171 2014,-171 2014,-171 1812.7064,-171 1812.7064,-171"/>
<polygon fill="#000000" stroke="#000000" points="1812.7065,-167.5001 1802.7064,-171 1812.7064,-174.5001 1812.7065,-167.5001"/>
</g>
<!-- PagesClientsComponent -->
<g id="node13" class="node">
<title>PagesClientsComponent</title>
<polygon fill="#ffffb3" stroke="#000000" points="1912.6568,-122 1759.3432,-122 1759.3432,-86 1912.6568,-86 1912.6568,-122"/>
<text text-anchor="middle" x="1836" y="-99.8" font-family="Times,serif" font-size="14.00" fill="#000000">PagesClientsComponent</text>
</g>
<!-- PagesClientsComponent&#45;&gt;ClientsModule -->
<g id="edge13" class="edge">
<title>PagesClientsComponent&#45;&gt;ClientsModule</title>
<path fill="none" stroke="#000000" d="M1780.8903,-122.0109C1780.8903,-122.0109 1780.8903,-151.855 1780.8903,-151.855"/>
<polygon fill="#000000" stroke="#000000" points="1777.3903,-151.8549 1780.8903,-161.855 1784.3903,-151.855 1777.3903,-151.8549"/>
</g>
<!-- ClientsRoutingModule -->
<g id="node15" class="node">
<title>ClientsRoutingModule</title>
<polygon fill="#8dd3c7" stroke="#000000" points="2265.3356,-122 2262.3356,-126 2241.3356,-126 2238.3356,-122 2120.6644,-122 2120.6644,-86 2265.3356,-86 2265.3356,-122"/>
<text text-anchor="middle" x="2193" y="-99.8" font-family="Times,serif" font-size="14.00" fill="#000000">ClientsRoutingModule</text>
</g>
<!-- ClientsRoutingModule&#45;&gt;ClientsModule -->
<g id="edge14" class="edge">
<title>ClientsRoutingModule&#45;&gt;ClientsModule</title>
<path fill="none" stroke="#000000" d="M2193,-122.0109C2193,-144.4852 2193,-180 2193,-180 2193,-180 1812.6183,-180 1812.6183,-180"/>
<polygon fill="#000000" stroke="#000000" points="1812.6183,-176.5001 1802.6183,-180 1812.6183,-183.5001 1812.6183,-176.5001"/>
</g>
<!-- SharedModule -->
<g id="node16" class="node">
<title>SharedModule</title>
<polygon fill="#8dd3c7" stroke="#000000" points="2381.4231,-122 2378.4231,-126 2357.4231,-126 2354.4231,-122 2282.5769,-122 2282.5769,-86 2381.4231,-86 2381.4231,-122"/>
<text text-anchor="middle" x="2332" y="-99.8" font-family="Times,serif" font-size="14.00" fill="#000000">SharedModule</text>
</g>
<!-- SharedModule&#45;&gt;UiModule -->
<g id="edge47" class="edge">
<title>SharedModule&#45;&gt;UiModule</title>
<path fill="none" stroke="#000000" d="M2315.5963,-122.1944C2315.5963,-130.2782 2315.5963,-138 2315.5963,-138 2315.5963,-138 488.3868,-138 488.3868,-138 488.3868,-138 488.3868,-151.9445 488.3868,-151.9445"/>
<polygon fill="#000000" stroke="#000000" points="484.8868,-151.9444 488.3868,-161.9445 491.8868,-151.9445 484.8868,-151.9444"/>
</g>
<!-- SharedModule&#45;&gt;ClientsModule -->
<g id="edge15" class="edge">
<title>SharedModule&#45;&gt;ClientsModule</title>
<path fill="none" stroke="#000000" d="M2348.4037,-122.0263C2348.4037,-146.9773 2348.4037,-189 2348.4037,-189 2348.4037,-189 1812.7397,-189 1812.7397,-189"/>
<polygon fill="#000000" stroke="#000000" points="1812.7397,-185.5001 1802.7397,-189 1812.7397,-192.5001 1812.7397,-185.5001"/>
</g>
<!-- PrestationsModule -->
<g id="node29" class="node">
<title>PrestationsModule</title>
<polygon fill="#8dd3c7" stroke="#000000" points="4471.4832,-198 4468.4832,-202 4447.4832,-202 4444.4832,-198 4350.5168,-198 4350.5168,-162 4471.4832,-162 4471.4832,-198"/>
<text text-anchor="middle" x="4411" y="-175.8" font-family="Times,serif" font-size="14.00" fill="#000000">PrestationsModule</text>
</g>
<!-- SharedModule&#45;&gt;PrestationsModule -->
<g id="edge28" class="edge">
<title>SharedModule&#45;&gt;PrestationsModule</title>
<path fill="none" stroke="#000000" d="M2381.3265,-89C2628.2179,-89 3717.9453,-89 3717.9453,-89 3717.9453,-89 3717.9453,-191 3717.9453,-191 3717.9453,-191 4340.4062,-191 4340.4062,-191"/>
<polygon fill="#000000" stroke="#000000" points="4340.4062,-194.5001 4350.4062,-191 4340.4062,-187.5001 4340.4062,-194.5001"/>
</g>
<!-- AddRowComponent  -->
<g id="node36" class="node">
<title>AddRowComponent </title>
<polygon fill="#fb8072" stroke="#000000" points="3053.8827,-198 2918.1173,-198 2918.1173,-162 3053.8827,-162 3053.8827,-198"/>
<text text-anchor="middle" x="2986" y="-175.8" font-family="Times,serif" font-size="14.00" fill="#000000">AddRowComponent </text>
</g>
<!-- SharedModule&#45;&gt;AddRowComponent  -->
<g id="edge34" class="edge">
<title>SharedModule&#45;&gt;AddRowComponent </title>
<path fill="none" stroke="#000000" stroke-dasharray="5,2" d="M2381.4244,-107C2533.7827,-107 2986,-107 2986,-107 2986,-107 2986,-151.9551 2986,-151.9551"/>
<polygon fill="#000000" stroke="#000000" points="2982.5001,-151.955 2986,-161.9551 2989.5001,-151.9551 2982.5001,-151.955"/>
</g>
<!-- StateDirective  -->
<g id="node37" class="node">
<title>StateDirective </title>
<polygon fill="#fb8072" stroke="#000000" points="2900.5767,-198 2801.4233,-198 2801.4233,-162 2900.5767,-162 2900.5767,-198"/>
<text text-anchor="middle" x="2851" y="-175.8" font-family="Times,serif" font-size="14.00" fill="#000000">StateDirective </text>
</g>
<!-- SharedModule&#45;&gt;StateDirective  -->
<g id="edge35" class="edge">
<title>SharedModule&#45;&gt;StateDirective </title>
<path fill="none" stroke="#000000" stroke-dasharray="5,2" d="M2381.2942,-110C2510.8453,-110 2851,-110 2851,-110 2851,-110 2851,-151.9733 2851,-151.9733"/>
<polygon fill="#000000" stroke="#000000" points="2847.5001,-151.9732 2851,-161.9733 2854.5001,-151.9733 2847.5001,-151.9732"/>
</g>
<!-- TableauComponent  -->
<g id="node38" class="node">
<title>TableauComponent </title>
<polygon fill="#fb8072" stroke="#000000" points="2782.9194,-198 2653.0806,-198 2653.0806,-162 2782.9194,-162 2782.9194,-198"/>
<text text-anchor="middle" x="2718" y="-175.8" font-family="Times,serif" font-size="14.00" fill="#000000">TableauComponent </text>
</g>
<!-- SharedModule&#45;&gt;TableauComponent  -->
<g id="edge36" class="edge">
<title>SharedModule&#45;&gt;TableauComponent </title>
<path fill="none" stroke="#000000" stroke-dasharray="5,2" d="M2381.2792,-113C2485.34,-113 2718,-113 2718,-113 2718,-113 2718,-151.692 2718,-151.692"/>
<polygon fill="#000000" stroke="#000000" points="2714.5001,-151.6919 2718,-161.692 2721.5001,-151.692 2714.5001,-151.6919"/>
</g>
<!-- TemplatesModule  -->
<g id="node39" class="node">
<title>TemplatesModule </title>
<polygon fill="#fb8072" stroke="#000000" points="2634.8631,-198 2513.1369,-198 2513.1369,-162 2634.8631,-162 2634.8631,-198"/>
<text text-anchor="middle" x="2574" y="-175.8" font-family="Times,serif" font-size="14.00" fill="#000000">TemplatesModule </text>
</g>
<!-- SharedModule&#45;&gt;TemplatesModule  -->
<g id="edge37" class="edge">
<title>SharedModule&#45;&gt;TemplatesModule </title>
<path fill="none" stroke="#000000" stroke-dasharray="5,2" d="M2381.264,-116C2452.0212,-116 2574,-116 2574,-116 2574,-116 2574,-151.8314 2574,-151.8314"/>
<polygon fill="#000000" stroke="#000000" points="2570.5001,-151.8313 2574,-161.8314 2577.5001,-151.8314 2570.5001,-151.8313"/>
</g>
<!-- TotalPipe  -->
<g id="node40" class="node">
<title>TotalPipe </title>
<polygon fill="#fb8072" stroke="#000000" points="2494.9362,-198 2421.0638,-198 2421.0638,-162 2494.9362,-162 2494.9362,-198"/>
<text text-anchor="middle" x="2458" y="-175.8" font-family="Times,serif" font-size="14.00" fill="#000000">TotalPipe </text>
</g>
<!-- SharedModule&#45;&gt;TotalPipe  -->
<g id="edge38" class="edge">
<title>SharedModule&#45;&gt;TotalPipe </title>
<path fill="none" stroke="#000000" stroke-dasharray="5,2" d="M2381.4369,-119C2416.7365,-119 2458,-119 2458,-119 2458,-119 2458,-151.698 2458,-151.698"/>
<polygon fill="#000000" stroke="#000000" points="2454.5001,-151.698 2458,-161.698 2461.5001,-151.698 2454.5001,-151.698"/>
</g>
<!-- PageLoginComponent -->
<g id="node17" class="node">
<title>PageLoginComponent</title>
<polygon fill="#ffffb3" stroke="#000000" points="983.9874,-122 842.0126,-122 842.0126,-86 983.9874,-86 983.9874,-122"/>
<text text-anchor="middle" x="913" y="-99.8" font-family="Times,serif" font-size="14.00" fill="#000000">PageLoginComponent</text>
</g>
<!-- PageLoginComponent&#45;&gt;LoginModule -->
<g id="edge16" class="edge">
<title>PageLoginComponent&#45;&gt;LoginModule</title>
<path fill="none" stroke="#000000" d="M885.9993,-122.0511C885.9993,-136.373 885.9993,-154 885.9993,-154 885.9993,-154 597.0407,-154 597.0407,-154 597.0407,-154 597.0407,-154.7942 597.0407,-154.7942"/>
<polygon fill="#000000" stroke="#000000" points="593.5408,-151.9421 597.0407,-161.9421 600.5408,-151.9422 593.5408,-151.9421"/>
</g>
<!-- LoginRoutingModule -->
<g id="node18" class="node">
<title>LoginRoutingModule</title>
<polygon fill="#8dd3c7" stroke="#000000" points="818.1108,-122 815.1108,-126 794.1108,-126 791.1108,-122 679.8892,-122 679.8892,-86 818.1108,-86 818.1108,-122"/>
<text text-anchor="middle" x="749" y="-99.8" font-family="Times,serif" font-size="14.00" fill="#000000">LoginRoutingModule</text>
</g>
<!-- LoginRoutingModule&#45;&gt;LoginModule -->
<g id="edge17" class="edge">
<title>LoginRoutingModule&#45;&gt;LoginModule</title>
<path fill="none" stroke="#000000" d="M722.1659,-122.0555C722.1659,-133.439 722.1659,-146 722.1659,-146 722.1659,-146 576.5849,-146 576.5849,-146 576.5849,-146 576.5849,-151.8056 576.5849,-151.8056"/>
<polygon fill="#000000" stroke="#000000" points="573.0849,-151.8055 576.5849,-161.8056 580.0849,-151.8056 573.0849,-151.8055"/>
</g>
<!-- PageNotFoundComponent -->
<g id="node19" class="node">
<title>PageNotFoundComponent</title>
<polygon fill="#ffffb3" stroke="#000000" points="5666.8243,-122 5501.1757,-122 5501.1757,-86 5666.8243,-86 5666.8243,-122"/>
<text text-anchor="middle" x="5584" y="-99.8" font-family="Times,serif" font-size="14.00" fill="#000000">PageNotFoundComponent</text>
</g>
<!-- PageNotFoundModule -->
<g id="node20" class="node">
<title>PageNotFoundModule</title>
<polygon fill="#8dd3c7" stroke="#000000" points="5554.5421,-198 5551.5421,-202 5530.5421,-202 5527.5421,-198 5411.4579,-198 5411.4579,-162 5554.5421,-162 5554.5421,-198"/>
<text text-anchor="middle" x="5483" y="-175.8" font-family="Times,serif" font-size="14.00" fill="#000000">PageNotFoundModule</text>
</g>
<!-- PageNotFoundComponent&#45;&gt;PageNotFoundModule -->
<g id="edge18" class="edge">
<title>PageNotFoundComponent&#45;&gt;PageNotFoundModule</title>
<path fill="none" stroke="#000000" d="M5528.0544,-122.0109C5528.0544,-122.0109 5528.0544,-151.855 5528.0544,-151.855"/>
<polygon fill="#000000" stroke="#000000" points="5524.5544,-151.8549 5528.0544,-161.855 5531.5544,-151.855 5524.5544,-151.8549"/>
</g>
<!-- PageNotFoundRoutingModule -->
<g id="node21" class="node">
<title>PageNotFoundRoutingModule</title>
<polygon fill="#8dd3c7" stroke="#000000" points="5477.1595,-122 5474.1595,-126 5453.1595,-126 5450.1595,-122 5288.8405,-122 5288.8405,-86 5477.1595,-86 5477.1595,-122"/>
<text text-anchor="middle" x="5383" y="-99.8" font-family="Times,serif" font-size="14.00" fill="#000000">PageNotFoundRoutingModule</text>
</g>
<!-- PageNotFoundRoutingModule&#45;&gt;PageNotFoundModule -->
<g id="edge19" class="edge">
<title>PageNotFoundRoutingModule&#45;&gt;PageNotFoundModule</title>
<path fill="none" stroke="#000000" d="M5444.2795,-122.0109C5444.2795,-122.0109 5444.2795,-151.855 5444.2795,-151.855"/>
<polygon fill="#000000" stroke="#000000" points="5440.7795,-151.8549 5444.2795,-161.855 5447.7795,-151.855 5440.7795,-151.8549"/>
</g>
<!-- AddPrestationComponent -->
<g id="node22" class="node">
<title>AddPrestationComponent</title>
<polygon fill="#ffffb3" stroke="#000000" points="5093.9284,-122 4932.0716,-122 4932.0716,-86 5093.9284,-86 5093.9284,-122"/>
<text text-anchor="middle" x="5013" y="-99.8" font-family="Times,serif" font-size="14.00" fill="#000000">AddPrestationComponent</text>
</g>
<!-- AddPrestationComponent&#45;&gt;PrestationsModule -->
<g id="edge20" class="edge">
<title>AddPrestationComponent&#45;&gt;PrestationsModule</title>
<path fill="none" stroke="#000000" d="M5013,-122.1532C5013,-145.7566 5013,-184 5013,-184 5013,-184 4481.7569,-184 4481.7569,-184"/>
<polygon fill="#000000" stroke="#000000" points="4481.7569,-180.5001 4471.7569,-184 4481.7568,-187.5001 4481.7569,-180.5001"/>
</g>
<!-- FormPrestationComponent -->
<g id="node23" class="node">
<title>FormPrestationComponent</title>
<polygon fill="#ffffb3" stroke="#000000" points="4913.6554,-122 4746.3446,-122 4746.3446,-86 4913.6554,-86 4913.6554,-122"/>
<text text-anchor="middle" x="4830" y="-99.8" font-family="Times,serif" font-size="14.00" fill="#000000">FormPrestationComponent</text>
</g>
<!-- FormPrestationComponent&#45;&gt;PrestationsModule -->
<g id="edge21" class="edge">
<title>FormPrestationComponent&#45;&gt;PrestationsModule</title>
<path fill="none" stroke="#000000" d="M4830,-122.0449C4830,-143.6623 4830,-177 4830,-177 4830,-177 4481.9262,-177 4481.9262,-177"/>
<polygon fill="#000000" stroke="#000000" points="4481.9262,-173.5001 4471.9262,-177 4481.9262,-180.5001 4481.9262,-173.5001"/>
</g>
<!-- FormReactivePrestationComponent -->
<g id="node24" class="node">
<title>FormReactivePrestationComponent</title>
<polygon fill="#ffffb3" stroke="#000000" points="4728.1315,-122 4511.8685,-122 4511.8685,-86 4728.1315,-86 4728.1315,-122"/>
<text text-anchor="middle" x="4620" y="-99.8" font-family="Times,serif" font-size="14.00" fill="#000000">FormReactivePrestationComponent</text>
</g>
<!-- FormReactivePrestationComponent&#45;&gt;PrestationsModule -->
<g id="edge22" class="edge">
<title>FormReactivePrestationComponent&#45;&gt;PrestationsModule</title>
<path fill="none" stroke="#000000" d="M4620,-122.0348C4620,-141.5762 4620,-170 4620,-170 4620,-170 4481.7322,-170 4481.7322,-170"/>
<polygon fill="#000000" stroke="#000000" points="4481.7322,-166.5001 4471.7322,-170 4481.7322,-173.5001 4481.7322,-166.5001"/>
</g>
<!-- ListPrestationsComponent -->
<g id="node25" class="node">
<title>ListPrestationsComponent</title>
<polygon fill="#ffffb3" stroke="#000000" points="4493.0448,-122 4328.9552,-122 4328.9552,-86 4493.0448,-86 4493.0448,-122"/>
<text text-anchor="middle" x="4411" y="-99.8" font-family="Times,serif" font-size="14.00" fill="#000000">ListPrestationsComponent</text>
</g>
<!-- ListPrestationsComponent&#45;&gt;PrestationsModule -->
<g id="edge23" class="edge">
<title>ListPrestationsComponent&#45;&gt;PrestationsModule</title>
<path fill="none" stroke="#000000" d="M4411,-122.0109C4411,-122.0109 4411,-151.855 4411,-151.855"/>
<polygon fill="#000000" stroke="#000000" points="4407.5001,-151.8549 4411,-161.855 4414.5001,-151.855 4407.5001,-151.8549"/>
</g>
<!-- PageAddPrestationComponent -->
<g id="node26" class="node">
<title>PageAddPrestationComponent</title>
<polygon fill="#ffffb3" stroke="#000000" points="4310.1399,-122 4121.8601,-122 4121.8601,-86 4310.1399,-86 4310.1399,-122"/>
<text text-anchor="middle" x="4216" y="-99.8" font-family="Times,serif" font-size="14.00" fill="#000000">PageAddPrestationComponent</text>
</g>
<!-- PageAddPrestationComponent&#45;&gt;PrestationsModule -->
<g id="edge24" class="edge">
<title>PageAddPrestationComponent&#45;&gt;PrestationsModule</title>
<path fill="none" stroke="#000000" d="M4216,-122.0348C4216,-141.5762 4216,-170 4216,-170 4216,-170 4340.3697,-170 4340.3697,-170"/>
<polygon fill="#000000" stroke="#000000" points="4340.3697,-173.5001 4350.3697,-170 4340.3697,-166.5001 4340.3697,-173.5001"/>
</g>
<!-- PagesPrestationsComponent -->
<g id="node27" class="node">
<title>PagesPrestationsComponent</title>
<polygon fill="#ffffb3" stroke="#000000" points="4103.9227,-122 3928.0773,-122 3928.0773,-86 4103.9227,-86 4103.9227,-122"/>
<text text-anchor="middle" x="4016" y="-99.8" font-family="Times,serif" font-size="14.00" fill="#000000">PagesPrestationsComponent</text>
</g>
<!-- PagesPrestationsComponent&#45;&gt;PrestationsModule -->
<g id="edge25" class="edge">
<title>PagesPrestationsComponent&#45;&gt;PrestationsModule</title>
<path fill="none" stroke="#000000" d="M4016,-122.0449C4016,-143.6623 4016,-177 4016,-177 4016,-177 4340.1469,-177 4340.1469,-177"/>
<polygon fill="#000000" stroke="#000000" points="4340.1469,-180.5001 4350.1469,-177 4340.1469,-173.5001 4340.1469,-180.5001"/>
</g>
<!-- PrestationComponent -->
<g id="node28" class="node">
<title>PrestationComponent</title>
<polygon fill="#ffffb3" stroke="#000000" points="5248.8216,-122 5111.1784,-122 5111.1784,-86 5248.8216,-86 5248.8216,-122"/>
<text text-anchor="middle" x="5180" y="-99.8" font-family="Times,serif" font-size="14.00" fill="#000000">PrestationComponent</text>
</g>
<!-- PrestationComponent&#45;&gt;PrestationsModule -->
<g id="edge26" class="edge">
<title>PrestationComponent&#45;&gt;PrestationsModule</title>
<path fill="none" stroke="#000000" d="M5180,-122.0265C5180,-147.5093 5180,-191 5180,-191 5180,-191 4481.6632,-191 4481.6632,-191"/>
<polygon fill="#000000" stroke="#000000" points="4481.6632,-187.5001 4471.6632,-191 4481.6631,-194.5001 4481.6632,-187.5001"/>
</g>
<!-- PrestationsRoutingModule -->
<g id="node30" class="node">
<title>PrestationsRoutingModule</title>
<polygon fill="#8dd3c7" stroke="#000000" points="3904.101,-122 3901.101,-126 3880.101,-126 3877.101,-122 3737.899,-122 3737.899,-86 3904.101,-86 3904.101,-122"/>
<text text-anchor="middle" x="3821" y="-99.8" font-family="Times,serif" font-size="14.00" fill="#000000">PrestationsRoutingModule</text>
</g>
<!-- PrestationsRoutingModule&#45;&gt;PrestationsModule -->
<g id="edge27" class="edge">
<title>PrestationsRoutingModule&#45;&gt;PrestationsModule</title>
<path fill="none" stroke="#000000" d="M3821,-122.1532C3821,-145.7566 3821,-184 3821,-184 3821,-184 4340.3573,-184 4340.3573,-184"/>
<polygon fill="#000000" stroke="#000000" points="4340.3574,-187.5001 4350.3573,-184 4340.3573,-180.5001 4340.3574,-187.5001"/>
</g>
<!-- AddRowComponent -->
<g id="node31" class="node">
<title>AddRowComponent</title>
<polygon fill="#ffffb3" stroke="#000000" points="3697.8823,-198 3566.1177,-198 3566.1177,-162 3697.8823,-162 3697.8823,-198"/>
<text text-anchor="middle" x="3632" y="-175.8" font-family="Times,serif" font-size="14.00" fill="#000000">AddRowComponent</text>
</g>
<!-- AddRowComponent&#45;&gt;SharedModule -->
<g id="edge29" class="edge">
<title>AddRowComponent&#45;&gt;SharedModule</title>
<path fill="none" stroke="#000000" d="M3632,-161.7663C3632,-135.9906 3632,-92 3632,-92 3632,-92 2391.3741,-92 2391.3741,-92"/>
<polygon fill="#000000" stroke="#000000" points="2391.3741,-88.5001 2381.3741,-92 2391.3741,-95.5001 2391.3741,-88.5001"/>
</g>
<!-- StateDirective -->
<g id="node32" class="node">
<title>StateDirective</title>
<polygon fill="#ffffb3" stroke="#000000" points="3548.0758,-198 3451.9242,-198 3451.9242,-162 3548.0758,-162 3548.0758,-198"/>
<text text-anchor="middle" x="3500" y="-175.8" font-family="Times,serif" font-size="14.00" fill="#000000">StateDirective</text>
</g>
<!-- StateDirective&#45;&gt;SharedModule -->
<g id="edge30" class="edge">
<title>StateDirective&#45;&gt;SharedModule</title>
<path fill="none" stroke="#000000" d="M3500,-161.9737C3500,-137.0227 3500,-95 3500,-95 3500,-95 2391.4415,-95 2391.4415,-95"/>
<polygon fill="#000000" stroke="#000000" points="2391.4415,-91.5001 2381.4415,-95 2391.4414,-98.5001 2391.4415,-91.5001"/>
</g>
<!-- TableauComponent -->
<g id="node33" class="node">
<title>TableauComponent</title>
<polygon fill="#ffffb3" stroke="#000000" points="3434.4201,-198 3307.5799,-198 3307.5799,-162 3434.4201,-162 3434.4201,-198"/>
<text text-anchor="middle" x="3371" y="-175.8" font-family="Times,serif" font-size="14.00" fill="#000000">TableauComponent</text>
</g>
<!-- TableauComponent&#45;&gt;SharedModule -->
<g id="edge31" class="edge">
<title>TableauComponent&#45;&gt;SharedModule</title>
<path fill="none" stroke="#000000" d="M3371,-161.8015C3371,-137.6437 3371,-98 3371,-98 3371,-98 2391.4142,-98 2391.4142,-98"/>
<polygon fill="#000000" stroke="#000000" points="2391.4142,-94.5001 2381.4142,-98 2391.4141,-101.5001 2391.4142,-94.5001"/>
</g>
<!-- TotalPipe -->
<g id="node34" class="node">
<title>TotalPipe</title>
<polygon fill="#ffffb3" stroke="#000000" points="3290.4376,-198 3219.5624,-198 3219.5624,-162 3290.4376,-162 3290.4376,-198"/>
<text text-anchor="middle" x="3255" y="-175.8" font-family="Times,serif" font-size="14.00" fill="#000000">TotalPipe</text>
</g>
<!-- TotalPipe&#45;&gt;SharedModule -->
<g id="edge32" class="edge">
<title>TotalPipe&#45;&gt;SharedModule</title>
<path fill="none" stroke="#000000" d="M3255,-161.6772C3255,-138.3398 3255,-101 3255,-101 3255,-101 2391.2982,-101 2391.2982,-101"/>
<polygon fill="#000000" stroke="#000000" points="2391.2982,-97.5001 2381.2982,-101 2391.2981,-104.5001 2391.2982,-97.5001"/>
</g>
<!-- TemplatesModule -->
<g id="node35" class="node">
<title>TemplatesModule</title>
<polygon fill="#8dd3c7" stroke="#000000" points="3195.8627,-198 3192.8627,-202 3171.8627,-202 3168.8627,-198 3078.1373,-198 3078.1373,-162 3195.8627,-162 3195.8627,-198"/>
<text text-anchor="middle" x="3137" y="-175.8" font-family="Times,serif" font-size="14.00" fill="#000000">TemplatesModule</text>
</g>
<!-- TemplatesModule&#45;&gt;SharedModule -->
<g id="edge33" class="edge">
<title>TemplatesModule&#45;&gt;SharedModule</title>
<path fill="none" stroke="#000000" d="M3137,-161.9891C3137,-139.5148 3137,-104 3137,-104 3137,-104 2391.4463,-104 2391.4463,-104"/>
<polygon fill="#000000" stroke="#000000" points="2391.4463,-100.5001 2381.4463,-104 2391.4463,-107.5001 2391.4463,-100.5001"/>
</g>
<!-- TemplateAComponent  -->
<g id="node43" class="node">
<title>TemplateAComponent </title>
<polygon fill="#fb8072" stroke="#000000" points="3125.8073,-274 2978.1927,-274 2978.1927,-238 3125.8073,-238 3125.8073,-274"/>
<text text-anchor="middle" x="3052" y="-251.8" font-family="Times,serif" font-size="14.00" fill="#000000">TemplateAComponent </text>
</g>
<!-- TemplatesModule&#45;&gt;TemplateAComponent  -->
<g id="edge41" class="edge">
<title>TemplatesModule&#45;&gt;TemplateAComponent </title>
<path fill="none" stroke="#000000" stroke-dasharray="5,2" d="M3109.9586,-198.0109C3109.9586,-198.0109 3109.9586,-227.855 3109.9586,-227.855"/>
<polygon fill="#000000" stroke="#000000" points="3106.4587,-227.8549 3109.9586,-237.855 3113.4587,-227.855 3106.4587,-227.8549"/>
</g>
<!-- TemplateBComponent  -->
<g id="node44" class="node">
<title>TemplateBComponent </title>
<polygon fill="#fb8072" stroke="#000000" points="2960.5372,-274 2813.4628,-274 2813.4628,-238 2960.5372,-238 2960.5372,-274"/>
<text text-anchor="middle" x="2887" y="-251.8" font-family="Times,serif" font-size="14.00" fill="#000000">TemplateBComponent </text>
</g>
<!-- TemplatesModule&#45;&gt;TemplateBComponent  -->
<g id="edge42" class="edge">
<title>TemplatesModule&#45;&gt;TemplateBComponent </title>
<path fill="none" stroke="#000000" stroke-dasharray="5,2" d="M3094.0137,-198.2434C3094.0137,-205.4297 3094.0137,-212 3094.0137,-212 3094.0137,-212 2939.4137,-212 2939.4137,-212 2939.4137,-212 2939.4137,-227.8495 2939.4137,-227.8495"/>
<polygon fill="#000000" stroke="#000000" points="2935.9138,-227.8494 2939.4137,-237.8495 2942.9138,-227.8495 2935.9138,-227.8494"/>
</g>
<!-- TemplateAComponent -->
<g id="node41" class="node">
<title>TemplateAComponent</title>
<polygon fill="#ffffb3" stroke="#000000" points="3456.3075,-274 3311.6925,-274 3311.6925,-238 3456.3075,-238 3456.3075,-274"/>
<text text-anchor="middle" x="3384" y="-251.8" font-family="Times,serif" font-size="14.00" fill="#000000">TemplateAComponent</text>
</g>
<!-- TemplateAComponent&#45;&gt;TemplatesModule -->
<g id="edge39" class="edge">
<title>TemplateAComponent&#45;&gt;TemplatesModule</title>
<path fill="none" stroke="#000000" d="M3373.0281,-237.9672C3373.0281,-231.1474 3373.0281,-225 3373.0281,-225 3373.0281,-225 3180.698,-225 3180.698,-225 3180.698,-225 3180.698,-208.0439 3180.698,-208.0439"/>
<polygon fill="#000000" stroke="#000000" points="3184.1981,-208.0439 3180.698,-198.0439 3177.1981,-208.044 3184.1981,-208.0439"/>
</g>
<!-- TemplateBComponent -->
<g id="node42" class="node">
<title>TemplateBComponent</title>
<polygon fill="#ffffb3" stroke="#000000" points="3293.5379,-274 3150.4621,-274 3150.4621,-238 3293.5379,-238 3293.5379,-274"/>
<text text-anchor="middle" x="3222" y="-251.8" font-family="Times,serif" font-size="14.00" fill="#000000">TemplateBComponent</text>
</g>
<!-- TemplateBComponent&#45;&gt;TemplatesModule -->
<g id="edge40" class="edge">
<title>TemplateBComponent&#45;&gt;TemplatesModule</title>
<path fill="none" stroke="#000000" d="M3165.4647,-237.9891C3165.4647,-237.9891 3165.4647,-208.145 3165.4647,-208.145"/>
<polygon fill="#000000" stroke="#000000" points="3168.9648,-208.145 3165.4647,-198.145 3161.9648,-208.1451 3168.9648,-208.145"/>
</g>
<!-- FooterComponent -->
<g id="node45" class="node">
<title>FooterComponent</title>
<polygon fill="#ffffb3" stroke="#000000" points="403.8809,-122 286.1191,-122 286.1191,-86 403.8809,-86 403.8809,-122"/>
<text text-anchor="middle" x="345" y="-99.8" font-family="Times,serif" font-size="14.00" fill="#000000">FooterComponent</text>
</g>
<!-- FooterComponent&#45;&gt;UiModule -->
<g id="edge43" class="edge">
<title>FooterComponent&#45;&gt;UiModule</title>
<path fill="none" stroke="#000000" d="M345,-122.308C345,-142.1455 345,-171 345,-171 345,-171 423.172,-171 423.172,-171"/>
<polygon fill="#000000" stroke="#000000" points="423.172,-174.5001 433.172,-171 423.1719,-167.5001 423.172,-174.5001"/>
</g>
<!-- HeaderComponent -->
<g id="node46" class="node">
<title>HeaderComponent</title>
<polygon fill="#ffffb3" stroke="#000000" points="267.7437,-122 146.2563,-122 146.2563,-86 267.7437,-86 267.7437,-122"/>
<text text-anchor="middle" x="207" y="-99.8" font-family="Times,serif" font-size="14.00" fill="#000000">HeaderComponent</text>
</g>
<!-- HeaderComponent&#45;&gt;UiModule -->
<g id="edge44" class="edge">
<title>HeaderComponent&#45;&gt;UiModule</title>
<path fill="none" stroke="#000000" d="M207,-122.0109C207,-144.4852 207,-180 207,-180 207,-180 423.431,-180 423.431,-180"/>
<polygon fill="#000000" stroke="#000000" points="423.431,-183.5001 433.431,-180 423.4309,-176.5001 423.431,-183.5001"/>
</g>
<!-- NavComponent -->
<g id="node47" class="node">
<title>NavComponent</title>
<polygon fill="#ffffb3" stroke="#000000" points="640.1542,-122 535.8458,-122 535.8458,-86 640.1542,-86 640.1542,-122"/>
<text text-anchor="middle" x="588" y="-99.8" font-family="Times,serif" font-size="14.00" fill="#000000">NavComponent</text>
</g>
<!-- NavComponent&#45;&gt;UiModule -->
<g id="edge45" class="edge">
<title>NavComponent&#45;&gt;UiModule</title>
<path fill="none" stroke="#000000" d="M556.129,-122.0579C556.129,-126.4945 556.129,-130 556.129,-130 556.129,-130 470,-130 470,-130 470,-130 470,-151.9489 470,-151.9489"/>
<polygon fill="#000000" stroke="#000000" points="466.5001,-151.9488 470,-161.9489 473.5001,-151.9489 466.5001,-151.9488"/>
</g>
<!-- UiComponent -->
<g id="node48" class="node">
<title>UiComponent</title>
<polygon fill="#ffffb3" stroke="#000000" points="517.8302,-122 422.1698,-122 422.1698,-86 517.8302,-86 517.8302,-122"/>
<text text-anchor="middle" x="470" y="-99.8" font-family="Times,serif" font-size="14.00" fill="#000000">UiComponent</text>
</g>
<!-- UiComponent&#45;&gt;UiModule -->
<g id="edge46" class="edge">
<title>UiComponent&#45;&gt;UiModule</title>
<path fill="none" stroke="#000000" d="M451.6133,-122.0109C451.6133,-122.0109 451.6133,-151.855 451.6133,-151.855"/>
<polygon fill="#000000" stroke="#000000" points="448.1133,-151.8549 451.6133,-161.855 455.1133,-151.855 448.1133,-151.8549"/>
</g>
</g>
</svg>
